<svg width="138" height="30" viewBox="0 0 138 30" fill="none" xmlns="http://www.w3.org/2000/svg">
<path d="M120.126 21.1264L115.556 14.0137L111.41 21.1264H106.627L113.286 10.4724L106.537 0H111.41L115.98 7.0825L120.096 0H124.878L118.25 10.6237L124.999 21.1264H120.126Z" fill="#F36F21"/>
<path d="M101.281 7.83849V15.9501C101.281 16.5151 101.412 16.9287 101.674 17.191C101.957 17.4332 102.421 17.5542 103.066 17.5542H105.034V21.1257H102.37C98.7987 21.1257 97.013 19.3904 97.013 15.9198V7.83849H95.0154V4.35777H97.013V0.211182H101.281V4.35777H105.034V7.83849H101.281Z" fill="#282828"/>
<path d="M77.6544 12.7417C77.6544 11.0064 78.0075 9.49305 78.7138 8.20165C79.42 6.89008 80.3986 5.88117 81.6497 5.17494C82.9007 4.44853 84.3334 4.08533 85.9476 4.08533C88.0259 4.08533 89.7411 4.60996 91.093 5.65922C92.4651 6.6883 93.3832 8.14112 93.8473 10.0177H89.277C89.0348 9.29127 88.6212 8.72628 88.036 8.32272C87.471 7.89898 86.7648 7.68711 85.9173 7.68711C84.7066 7.68711 83.7482 8.13103 83.042 9.01886C82.3357 9.88652 81.9826 11.1275 81.9826 12.7417C81.9826 14.3358 82.3357 15.5767 83.042 16.4646C83.7482 17.3322 84.7066 17.7661 85.9173 17.7661C87.6325 17.7661 88.7523 16.9993 89.277 15.4658H93.8473C93.3832 17.2818 92.4651 18.7245 91.093 19.7939C89.7209 20.8634 88.0058 21.3981 85.9476 21.3981C84.3334 21.3981 82.9007 21.045 81.6497 20.3388C80.3986 19.6123 79.42 18.6034 78.7138 17.312C78.0075 16.0005 77.6544 14.477 77.6544 12.7417Z" fill="#282828"/>
<path d="M57.7473 12.6812C57.7473 10.9862 58.0803 9.48296 58.7461 8.17138C59.4322 6.85981 60.3503 5.85091 61.5004 5.14468C62.6708 4.43844 63.9722 4.08533 65.4049 4.08533C66.6559 4.08533 67.7455 4.33755 68.6737 4.842C69.6221 5.34646 70.3788 5.98206 70.9438 6.74883V4.35773H75.2114V21.1257H70.9438V18.6741C70.399 19.461 69.6423 20.1168 68.6737 20.6414C67.7254 21.1459 66.6257 21.3981 65.3746 21.3981C63.9622 21.3981 62.6708 21.0349 61.5004 20.3085C60.3503 19.5821 59.4322 18.5631 58.7461 17.2515C58.0803 15.9198 57.7473 14.3963 57.7473 12.6812ZM70.9438 12.7417C70.9438 11.7126 70.742 10.8349 70.3384 10.1085C69.9349 9.36189 69.3901 8.79691 68.704 8.41352C68.0179 8.00996 67.2814 7.80818 66.4945 7.80818C65.7076 7.80818 64.9812 7.99987 64.3153 8.38325C63.6494 8.76664 63.1046 9.33162 62.6808 10.0782C62.2773 10.8046 62.0755 11.6723 62.0755 12.6812C62.0755 13.6901 62.2773 14.5779 62.6808 15.3447C63.1046 16.0913 63.6494 16.6663 64.3153 17.0699C65.0013 17.4735 65.7277 17.6753 66.4945 17.6753C67.2814 17.6753 68.0179 17.4836 68.704 17.1002C69.3901 16.6966 69.9349 16.1316 70.3384 15.4052C70.742 14.6586 70.9438 13.7708 70.9438 12.7417Z" fill="#282828"/>
<path d="M43.167 6.7791C43.7118 6.01233 44.4584 5.37672 45.4068 4.87227C46.3753 4.34764 47.475 4.08533 48.7059 4.08533C50.1385 4.08533 51.4299 4.43844 52.5801 5.14468C53.7504 5.85091 54.6685 6.85981 55.3344 8.17138C56.0204 9.46278 56.3634 10.966 56.3634 12.6812C56.3634 14.3963 56.0204 15.9198 55.3344 17.2515C54.6685 18.5631 53.7504 19.5821 52.5801 20.3085C51.4299 21.0349 50.1385 21.3981 48.7059 21.3981C47.475 21.3981 46.3854 21.1459 45.437 20.6414C44.5088 20.137 43.7522 19.5014 43.167 18.7346V29.1162H38.9296V4.35773H43.167V6.7791ZM52.0352 12.6812C52.0352 11.6723 51.8234 10.8046 51.3996 10.0782C50.9961 9.33162 50.4513 8.76664 49.7652 8.38325C49.0993 7.99987 48.3729 7.80818 47.586 7.80818C46.8192 7.80818 46.0928 8.00996 45.4068 8.41352C44.7409 8.7969 44.1961 9.36189 43.7723 10.1085C43.3688 10.8551 43.167 11.7328 43.167 12.7417C43.167 13.7506 43.3688 14.6284 43.7723 15.375C44.1961 16.1215 44.7409 16.6966 45.4068 17.1002C46.0928 17.4836 46.8192 17.6753 47.586 17.6753C48.3729 17.6753 49.0993 17.4735 49.7652 17.0699C50.4513 16.6663 50.9961 16.0913 51.3996 15.3447C51.8234 14.5981 52.0352 13.7103 52.0352 12.6812Z" fill="#282828"/>
<path d="M28.6418 4.11694C30.6999 4.11694 32.3545 4.75255 33.6056 6.02377C34.8768 7.27481 35.5124 9.0303 35.5124 11.2902V21.127H31.275V11.8653C31.275 10.5537 30.9421 9.55493 30.2762 8.86888C29.6103 8.16264 28.7023 7.80953 27.5522 7.80953C26.402 7.80953 25.4839 8.16264 24.7979 8.86888C24.132 9.55493 23.799 10.5537 23.799 11.8653V21.127H19.5617V11.8653C19.5617 10.5537 19.2287 9.55493 18.5628 8.86888C17.897 8.16264 16.989 7.80953 15.8388 7.80953C14.6685 7.80953 13.7403 8.16264 13.0542 8.86888C12.3884 9.55493 12.0554 10.5537 12.0554 11.8653V21.127H7.81802V4.35908H12.0554V6.38698C12.6002 5.68074 13.2964 5.12585 14.1438 4.72228C15.0115 4.31872 15.9599 4.11694 16.989 4.11694C18.3005 4.11694 19.4709 4.39944 20.4999 4.96442C21.529 5.50923 22.326 6.29617 22.891 7.32526C23.4358 6.35671 24.2228 5.57985 25.2519 4.99469C26.3011 4.40952 27.4311 4.11694 28.6418 4.11694Z" fill="#282828"/>
<path d="M4.23739 0V21.1264H0V0H4.23739Z" fill="#282828"/>
<path d="M133.999 8C132.854 8 131.896 7.64486 131.145 6.8972C130.375 6.16822 129.999 5.21495 129.999 4.01869C129.999 2.84112 130.375 1.86916 131.145 1.1215C131.896 0.373833 132.854 0 133.999 0C135.126 0 136.065 0.373833 136.835 1.1215C137.605 1.86916 137.999 2.84112 137.999 4.01869C137.999 5.21495 137.605 6.16822 136.835 6.8972C136.065 7.64486 135.126 8 133.999 8ZM130.976 4.01869C130.976 4.95327 131.258 5.70093 131.84 6.26168C132.403 6.82243 133.136 7.1028 133.999 7.1028C134.845 7.1028 135.558 6.82243 136.14 6.26168C136.722 5.70093 137.023 4.95327 137.023 4.01869C137.023 3.08411 136.722 2.33645 136.14 1.75701C135.558 1.19626 134.845 0.897197 133.999 0.897197C133.136 0.897197 132.403 1.19626 131.84 1.75701C131.258 2.31776 130.976 3.08411 130.976 4.01869ZM132.572 5.66355V2.09346H134.244C134.619 2.09346 134.938 2.20561 135.22 2.41121C135.483 2.61682 135.633 2.91589 135.633 3.30841C135.633 3.83178 135.389 4.16822 134.92 4.31776L135.746 5.66355H134.638L133.962 4.39252H133.511V5.66355H132.572ZM133.511 3.71963H134.168C134.469 3.71963 134.638 3.60748 134.638 3.34579C134.638 3.06542 134.469 2.91589 134.168 2.91589H133.511V3.71963Z" fill="#5A5A5A"/>
</svg>
