<svg width="16" height="16" viewBox="0 0 16 16" fill="none" xmlns="http://www.w3.org/2000/svg">
<circle cx="8.0001" cy="7.99961" r="6.4" fill="#0453FF"/>
<path fill-rule="evenodd" clip-rule="evenodd" d="M9.04365 5.79375C9.14365 5.61875 9.1999 5.41562 9.1999 5.2C9.1999 4.5375 8.6624 4 7.9999 4C7.3374 4 6.7999 4.5375 6.7999 5.2C6.7999 5.8625 7.3374 6.4 7.9999 6.4C8.44678 6.4 8.8374 6.15625 9.04365 5.79375ZM7.1999 7.2H7.5999H8.3999C8.84209 7.2 9.1999 7.55781 9.1999 8V8.8V12C9.1999 12.4422 8.84209 12.8 8.3999 12.8C7.95771 12.8 7.5999 12.4422 7.5999 12V9.4C7.5999 9.06875 7.33115 8.8 6.9999 8.8C6.66865 8.8 6.3999 8.53125 6.3999 8.2V8C6.3999 7.71875 6.54521 7.47031 6.76396 7.32812C6.88896 7.24688 7.03896 7.2 7.1999 7.2Z" fill="white"/>
</svg>
