<svg width="9" height="13" viewBox="0 0 9 13" fill="none" xmlns="http://www.w3.org/2000/svg">
<path d="M6.93227 3.392V3.616H8.78827V4.928H6.83627C6.71893 5.64267 6.49493 6.21333 6.16427 6.64C5.84427 7.056 5.3856 7.36 4.78827 7.552C4.19093 7.73333 3.4176 7.824 2.46827 7.824V8.832C2.46827 9.41867 2.59093 9.88267 2.83627 10.224C3.09227 10.5653 3.51893 10.736 4.11627 10.736C5.20427 10.736 5.74827 10.1227 5.74827 8.896H7.42827C7.4176 9.97333 7.12427 10.7893 6.54827 11.344C5.98293 11.888 5.1616 12.16 4.08427 12.16C3.00693 12.16 2.18027 11.8613 1.60427 11.264C1.03893 10.6667 0.756267 9.82933 0.756267 8.752V6.56C1.94027 6.56 2.8096 6.528 3.36427 6.464C3.91893 6.38933 4.3296 6.24 4.59627 6.016C4.8736 5.792 5.05493 5.42933 5.14027 4.928H0.0842667V3.616H5.22027V3.392V2.192H0.0842667V0.863999H8.78827V2.192H6.93227V3.392Z" fill="#282828"/>
</svg>
