<svg width="35" height="35" viewBox="0 0 35 35" fill="none" xmlns="http://www.w3.org/2000/svg">
<rect width="35" height="35" rx="17.5" fill="#282828"/>
<path d="M20.04 13.3C19.8933 12.6867 19.6267 12.2267 19.24 11.92C18.8533 11.6133 18.3133 11.46 17.62 11.46C16.5667 11.46 15.78 11.8667 15.26 12.68C14.74 13.48 14.4667 14.8133 14.44 16.68C14.7867 16.0933 15.2933 15.64 15.96 15.32C16.6267 15 17.3467 14.84 18.12 14.84C19 14.84 19.7733 15.0333 20.44 15.42C21.12 15.7933 21.6467 16.34 22.02 17.06C22.4067 17.78 22.6 18.64 22.6 19.64C22.6 20.5733 22.4133 21.4067 22.04 22.14C21.68 22.8733 21.14 23.4533 20.42 23.88C19.7 24.2933 18.8333 24.5 17.82 24.5C16.4467 24.5 15.3667 24.2 14.58 23.6C13.8067 22.9867 13.26 22.1267 12.94 21.02C12.6333 19.9133 12.48 18.5333 12.48 16.88C12.48 12 14.2 9.56 17.64 9.56C18.9733 9.56 20.02 9.92 20.78 10.64C21.5533 11.36 22.0067 12.2467 22.14 13.3H20.04ZM17.62 16.76C16.8067 16.76 16.1133 17.0067 15.54 17.5C14.98 17.98 14.7 18.68 14.7 19.6C14.7 20.52 14.96 21.2533 15.48 21.8C16.0133 22.3333 16.7533 22.6 17.7 22.6C18.54 22.6 19.2 22.34 19.68 21.82C20.1733 21.3 20.42 20.6067 20.42 19.74C20.42 18.8333 20.18 18.1133 19.7 17.58C19.2333 17.0333 18.54 16.76 17.62 16.76Z" fill="white"/>
</svg>
