<svg width="35" height="35" viewBox="0 0 35 35" fill="none" xmlns="http://www.w3.org/2000/svg">
<rect width="35" height="35" rx="17.5" fill="#282828"/>
<path d="M21.6 11.88H14.9V15.86C15.18 15.4867 15.5933 15.1733 16.14 14.92C16.7 14.6667 17.2933 14.54 17.92 14.54C19.04 14.54 19.9467 14.78 20.64 15.26C21.3467 15.74 21.8467 16.3467 22.14 17.08C22.4467 17.8133 22.6 18.5867 22.6 19.4C22.6 20.3867 22.4067 21.2667 22.02 22.04C21.6467 22.8 21.08 23.4 20.32 23.84C19.5733 24.28 18.6533 24.5 17.56 24.5C16.1067 24.5 14.94 24.14 14.06 23.42C13.18 22.7 12.6533 21.7467 12.48 20.56H14.7C14.8467 21.1867 15.1733 21.6867 15.68 22.06C16.1867 22.42 16.82 22.6 17.58 22.6C18.5267 22.6 19.2333 22.3133 19.7 21.74C20.18 21.1667 20.42 20.4067 20.42 19.46C20.42 18.5 20.18 17.7667 19.7 17.26C19.22 16.74 18.5133 16.48 17.58 16.48C16.9267 16.48 16.3733 16.6467 15.92 16.98C15.48 17.3 15.16 17.74 14.96 18.3H12.8V9.88H21.6V11.88Z" fill="white"/>
</svg>
