<svg width="35" height="35" viewBox="0 0 35 35" fill="none" xmlns="http://www.w3.org/2000/svg">
<rect width="35" height="35" rx="17.5" fill="#F36F21"/>
<path d="M12.66 13.52C12.74 12.28 13.2133 11.3133 14.08 10.62C14.96 9.92667 16.08 9.58 17.44 9.58C18.3733 9.58 19.18 9.74667 19.86 10.08C20.54 10.4133 21.0533 10.8667 21.4 11.44C21.7467 12.0133 21.92 12.66 21.92 13.38C21.92 14.2067 21.7 14.9133 21.26 15.5C20.82 16.0867 20.2933 16.48 19.68 16.68V16.76C20.4667 17 21.08 17.44 21.52 18.08C21.96 18.7067 22.18 19.5133 22.18 20.5C22.18 21.2867 22 21.9867 21.64 22.6C21.28 23.2133 20.7467 23.7 20.04 24.06C19.3333 24.4067 18.4867 24.58 17.5 24.58C16.06 24.58 14.8733 24.2133 13.94 23.48C13.02 22.7333 12.5267 21.6667 12.46 20.28H14.66C14.7133 20.9867 14.9867 21.5667 15.48 22.02C15.9733 22.46 16.64 22.68 17.48 22.68C18.2933 22.68 18.92 22.46 19.36 22.02C19.8 21.5667 20.02 20.9867 20.02 20.28C20.02 19.3467 19.72 18.6867 19.12 18.3C18.5333 17.9 17.6267 17.7 16.4 17.7H15.88V15.82H16.42C17.5 15.8067 18.32 15.6267 18.88 15.28C19.4533 14.9333 19.74 14.3867 19.74 13.64C19.74 13 19.5333 12.4933 19.12 12.12C18.7067 11.7333 18.12 11.54 17.36 11.54C16.6133 11.54 16.0333 11.7333 15.62 12.12C15.2067 12.4933 14.96 12.96 14.88 13.52H12.66Z" fill="white"/>
</svg>
