<svg width="35" height="35" viewBox="0 0 35 35" fill="none" xmlns="http://www.w3.org/2000/svg">
<rect width="35" height="35" rx="17.5" fill="#1DA867"/>
<g clip-path="url(#clip0_1_524)">
<path fill-rule="evenodd" clip-rule="evenodd" d="M15.0771 20.3066L22.1251 13.2586C22.3328 13.0509 22.6737 13.053 22.8793 13.2586L23.5598 13.9391C23.7654 14.1447 23.7654 14.4878 23.5598 14.6933L16.5118 21.7413C16.3062 21.9469 15.9653 21.949 15.7576 21.7413L15.0771 21.0608C14.8694 20.8531 14.8694 20.5143 15.0771 20.3066Z" fill="white"/>
<path fill-rule="evenodd" clip-rule="evenodd" d="M12.8756 16.0113L17.1689 20.3046C17.3765 20.5123 17.3741 20.8537 17.1689 21.0589L16.4884 21.7394C16.2832 21.9445 15.9394 21.9445 15.7342 21.7394L11.4409 17.446C11.2357 17.2408 11.2332 16.8995 11.4409 16.6918L12.1213 16.0113C12.329 15.8037 12.6679 15.8037 12.8756 16.0113Z" fill="white"/>
</g>
<defs>
<clipPath id="clip0_1_524">
<rect width="20" height="20" fill="white" transform="translate(7.5 7.5)"/>
</clipPath>
</defs>
</svg>
